<!-- Generated by IcoMoon.io -->
<svg version="1.1" xmlns="http://www.w3.org/2000/svg" width="34" height="32" viewBox="0 0 34 32">
<title>cart</title>
<path d="M33.124 11.939c-0.567-0.681-1.415-1.112-2.363-1.112-0.028 0-0.056 0-0.084 0.001l0.004-0h-27.613c-0.026-0.001-0.056-0.001-0.086-0.001-0.947 0-1.793 0.431-2.353 1.107l-0.004 0.005c-0.394 0.506-0.632 1.15-0.632 1.851 0 0.28 0.038 0.551 0.109 0.808l-0.005-0.021 3.235 14.022c0.538 1.923 2.24 3.324 4.281 3.401l0.009 0h18.506c2.050-0.078 3.752-1.478 4.282-3.369l0.008-0.033 3.235-14.022c0.061-0.231 0.097-0.496 0.097-0.769 0-0.705-0.234-1.355-0.63-1.877l0.006 0.008zM32.236 14.244l-3.249 14.022c-0.363 1.281-1.494 2.215-2.853 2.277l-0.007 0h-18.506c-1.365-0.062-2.497-0.996-2.855-2.255l-0.005-0.022-3.249-14.022c-0.038-0.13-0.059-0.28-0.059-0.435 0-0.358 0.116-0.689 0.312-0.958l-0.003 0.005c0.3-0.35 0.742-0.571 1.236-0.571 0.024 0 0.048 0.001 0.072 0.002l-0.003-0h27.613c0.039-0.004 0.084-0.006 0.129-0.006 0.828 0 1.499 0.671 1.499 1.499 0 0.166-0.027 0.325-0.077 0.474l0.003-0.011zM9.607 9.066c0 0 0 0 0 0 0.399 0 0.722-0.323 0.722-0.722 0-0.005-0-0.010-0-0.015v0.001c-0.001-0.046-0.002-0.101-0.002-0.155 0-3.648 2.907-6.617 6.531-6.717l0.009-0c3.642 0.099 6.556 3.075 6.556 6.731 0 0.074-0.001 0.148-0.004 0.221l0-0.011c-0 0.004-0 0.009-0 0.014 0 0.399 0.323 0.722 0.722 0.722 0 0 0 0 0 0v0c0.001 0 0.002 0 0.003 0 0.406 0 0.736-0.329 0.736-0.736 0-0.024-0.001-0.049-0.004-0.072l0 0.003c0.001-0.042 0.001-0.091 0.001-0.141 0-4.461-3.566-8.089-8.002-8.189l-0.009-0c-4.438 0.1-7.998 3.722-7.998 8.175 0 0.054 0.001 0.109 0.002 0.163l-0-0.008c0 0.406 0.329 0.736 0.736 0.736v0z"></path>
</svg>
